<?xml version="1.0" encoding="UTF-8"?>
<svg version="1.1" xmlns="http://www.w3.org/2000/svg" width="310" height="300">
<path d="M0 0 C1.2384668 0.00563965 2.47693359 0.0112793 3.75292969 0.01708984 C29.29965316 0.35614623 53.36440608 10.00070558 72.25 27.3125 C73.16265625 28.14394531 74.0753125 28.97539063 75.015625 29.83203125 C94.09315882 48.03029326 106.68988277 73.28431226 107.5859375 99.87890625 C108.02122103 133.60381348 98.52694141 160.31787045 75 184.9375 C53.57125029 205.83127399 25.97399184 214.75464942 -3.44628906 214.67822266 C-33.53112149 214.23060503 -59.34252705 200.55668634 -80.12109375 179.24609375 C-101.0535835 155.88755021 -107.93665194 127.35187766 -106.9453125 96.66992188 C-105.30090214 68.40250784 -89.40144975 42.81905883 -68.75 24.3125 C-48.90503504 8.51334725 -25.35714429 -0.12074831 0 0 Z M-5.1875 34.875 C-7.07604828 37.33858386 -7.07604828 37.33858386 -6.75 40.9375 C-6.255 42.608125 -6.255 42.608125 -5.75 44.3125 C-4.43 44.9725 -3.11 45.6325 -1.75 46.3125 C-2.08 49.2825 -2.41 52.2525 -2.75 55.3125 C-3.43707031 55.50585938 -4.12414062 55.69921875 -4.83203125 55.8984375 C-6.18361328 56.28902344 -6.18361328 56.28902344 -7.5625 56.6875 C-8.90248047 57.07035156 -8.90248047 57.07035156 -10.26953125 57.4609375 C-12.95467896 58.26516661 -12.95467896 58.26516661 -15.75 60.3125 C-17.66015625 60.81152344 -17.66015625 60.81152344 -19.8125 61.171875 C-32.18698067 63.40300847 -43.02985804 65.87816474 -51.33984375 76.09375 C-53.3476854 79.25290252 -54.41948427 82.61960013 -55.65234375 86.13671875 C-56.92302014 88.65546162 -57.78931741 89.2213946 -60.3125 90.375 C-63.88309318 92.38751615 -64.34384365 92.72301804 -65.6875 96.3125 C-67.72029686 103.91666603 -68.00416719 113.06458216 -64.75 120.3125 C-62.40373414 122.82261124 -59.83704447 124.76897777 -56.75 126.3125 C-56.13319319 127.81212983 -55.58089715 129.33857406 -55.0625 130.875 C-51.43681871 140.11719121 -45.96148355 144.92278867 -37.01171875 149.06640625 C-31.70959842 151.09200671 -26.30036052 152.19799942 -20.75 153.3125 C-18.39660219 153.92794449 -16.07865694 154.60848744 -13.75 155.3125 C-13.255 161.2525 -13.255 161.2525 -12.75 167.3125 C-7.27334029 166.65818183 -2.47877418 164.88029232 2.63671875 162.92578125 C3.98320244 162.41654366 3.98320244 162.41654366 5.35688782 161.89701843 C7.25324714 161.17775867 9.14850652 160.45559298 11.04272461 159.73071289 C13.90696976 158.63666159 16.77636976 157.55705917 19.64648438 156.47851562 C38.85820112 149.87325723 38.85820112 149.87325723 53.25 136.3125 C54.34280312 133.73937493 55.28433022 131.14190963 56.21875 128.5078125 C57.75628071 125.23473576 60.15562454 124.02428217 63.25 122.3125 C67.94433728 117.29441532 67.54555038 110.92494591 67.45703125 104.390625 C67.16307597 100.02012005 66.58012781 96.08469991 64.25 92.3125 C62.50813504 91.33072157 60.7598554 90.35093076 58.94140625 89.51953125 C56.01648571 87.4322323 55.47182131 84.19801339 54.32421875 80.91015625 C51.57603907 74.26455811 46.28889338 69.62004946 39.97265625 66.40234375 C33.41412657 63.77704995 26.4731952 62.30729709 19.61328125 60.69140625 C16.3093048 59.90358192 14.12038778 59.22609185 11.25 57.3125 C9.20415921 56.65091957 9.20415921 56.65091957 7.0625 56.1875 C5.804375 55.89875 4.54625 55.61 3.25 55.3125 C2.755 50.8575 2.755 50.8575 2.25 46.3125 C3.57 45.6525 4.89 44.9925 6.25 44.3125 C7.4216367 40.94489813 7.4216367 40.94489813 7.25 37.3125 C5.83333333 34.72916667 5.83333333 34.72916667 3.25 33.3125 C-0.40852292 32.70274618 -2.05512879 32.86706974 -5.1875 34.875 Z " fill="#0365FC" transform="translate(153.75,41.6875)"/>
<path d="M0 0 C1.22251465 0.00563965 2.4450293 0.0112793 3.70458984 0.01708984 C16.33796443 0.1862943 30.23879231 0.39506079 40.1875 9.3125 C47.50082616 18.65507325 47.1023108 33.01059204 45.875 44.1484375 C44.76212778 50.60707091 43.27965266 56.84535692 37.984375 61.0703125 C21.0460031 71.82565907 -5.35891682 70.4439766 -24.42651367 66.72485352 C-31.39600046 65.15348382 -36.66505304 62.9004489 -41.25 57.375 C-47.3370426 45.44439651 -47.52162175 30.06260602 -43.8125 17.3125 C-41.35840115 11.11882195 -37.7830016 7.08838083 -31.8125 4.125 C-21.75052167 0.10259843 -10.69831501 -0.05186882 0 0 Z M-23.625 27.8125 C-25.3096479 31.35912716 -25.38985621 34.45291327 -24.8125 38.3125 C-23.81213019 40.87258963 -23.81213019 40.87258963 -21.8125 42.3125 C-19.26959375 42.89600505 -19.26959375 42.89600505 -16.8125 42.3125 C-14.65307181 39.07335771 -14.54017022 38.06390267 -14.5625 34.3125 C-14.55734375 33.44625 -14.5521875 32.58 -14.546875 31.6875 C-14.65835448 29.046705 -14.65835448 29.046705 -16.8125 26.3125 C-19.87532563 25.76276207 -21.20210799 25.80734799 -23.625 27.8125 Z M17.1875 26.3125 C15.02807181 29.55164229 14.91517022 30.56109733 14.9375 34.3125 C14.93234375 35.17875 14.9271875 36.045 14.921875 36.9375 C15.03335448 39.578295 15.03335448 39.578295 17.1875 42.3125 C19.64459375 42.89600505 19.64459375 42.89600505 22.1875 42.3125 C24.3321305 40.53763338 25.06115521 39.15710623 25.47265625 36.40625 C25.61478557 33.09401898 25.43453256 30.83256854 24 27.8125 C22.24023873 26.10225697 22.24023873 26.10225697 19.625 25.875 C18.820625 26.019375 18.01625 26.16375 17.1875 26.3125 Z " fill="#0365FB" transform="translate(153.8125,114.6875)"/>
<path d="M0 0 C-17.80012289 11.12507681 -44.50900376 8.87188376 -64.1953125 4.65625 C-65.58363281 4.33140625 -65.58363281 4.33140625 -67 4 C-67 3.67 -67 3.34 -67 3 C-65.33343119 2.97242809 -63.66672149 2.95335197 -62 2.9375 C-61.071875 2.92589844 -60.14375 2.91429687 -59.1875 2.90234375 C-56.15336502 2.99530132 -53.22828459 3.36605849 -50.22265625 3.76635742 C-36.92980691 5.16368352 -18.61380644 6.04731766 -6.24609375 0.36328125 C-3 -1 -3 -1 0 0 Z " fill="#1B64CB" transform="translate(191,176)"/>
<path d="M0 0 C0.99 0.495 0.99 0.495 2 1 C2.40729228 3.32156597 2.74438677 5.6568787 3 8 C4.27875 8.0825 5.5575 8.165 6.875 8.25 C9.0546875 8.390625 9.0546875 8.390625 11 9 C12.2578125 11.046875 12.2578125 11.046875 13 13 C14.07636719 12.99097656 15.15273437 12.98195313 16.26171875 12.97265625 C26.97966229 13.11178636 34.02794808 15.02383324 43 21 C43 21.66 43 22.32 43 23 C43.5775 23.28875 44.155 23.5775 44.75 23.875 C46.83333333 24.91666667 48.91666667 25.95833333 51 27 C51 28.65 51 30.3 51 32 C50.34 31.29875 49.68 30.5975 49 29.875 C39.04233925 20.11096043 28.12953421 17.50613792 14.6796875 14.7109375 C12 14 12 14 9 12 C7.45233858 11.4172881 5.88807778 10.87735813 4.3125 10.375 C3.50425781 10.11460938 2.69601563 9.85421875 1.86328125 9.5859375 C1.24839844 9.39257812 0.63351563 9.19921875 0 9 C0 6.03 0 3.06 0 0 Z " fill="#155EC6" transform="translate(156,88)"/>
<path d="M0 0 C1.20978516 0.00064453 2.41957031 0.00128906 3.66601562 0.00195312 C9.76186267 0.03194909 15.66180944 0.25183376 21.6875 1.1875 C21.6875 1.5175 21.6875 1.8475 21.6875 2.1875 C7.1675 2.5175 -7.3525 2.8475 -22.3125 3.1875 C-22.3125 3.8475 -22.3125 4.5075 -22.3125 5.1875 C-23.26125 5.31125 -24.21 5.435 -25.1875 5.5625 C-28.39917191 5.90437177 -28.39917191 5.90437177 -30.3125 8.1875 C-30.3125 7.5275 -30.3125 6.8675 -30.3125 6.1875 C-31.26125 6.6825 -32.21 7.1775 -33.1875 7.6875 C-36.3125 9.1875 -36.3125 9.1875 -38.3125 9.1875 C-38.60125 9.826875 -38.89 10.46625 -39.1875 11.125 C-40.3125 13.1875 -40.3125 13.1875 -42.3125 14.1875 C-39.79160942 8.30542198 -35.86917431 5.48537775 -30.08056641 3.12817383 C-20.42854234 -0.15187986 -10.079057 -0.10368277 0 0 Z " fill="#2366CA" transform="translate(154.3125,114.8125)"/>
<path d="M0 0 C0.33 0 0.66 0 1 0 C0.5547115 5.27315333 -0.08373163 10.01770224 -2 15 C-2.66 15 -3.32 15 -4 15 C-3.95875 16.175625 -3.9175 17.35125 -3.875 18.5625 C-3.77408988 21.43843843 -4.11830017 23.37361598 -5 26.15820312 C-6.04313178 30.16570353 -6.25705901 33.80065884 -6.1953125 37.90234375 C-6.1924826 38.6249086 -6.18965271 39.34747345 -6.18673706 40.0919342 C-6.17564386 42.37396616 -6.15056088 44.65558897 -6.125 46.9375 C-6.11495611 48.49543699 -6.10583274 50.05338021 -6.09765625 51.61132812 C-6.07574033 55.40770699 -6.04128738 59.2037844 -6 63 C-6.33 63 -6.66 63 -7 63 C-10.92000488 41.82763344 -8.19411913 19.78792599 0 0 Z " fill="#2764BE" transform="translate(55,106)"/>
<path d="M0 0 C0 0.66 0 1.32 0 2 C-0.66 2 -1.32 2 -2 2 C-2.33064453 2.94552734 -2.33064453 2.94552734 -2.66796875 3.91015625 C-4 6 -4 6 -6.36328125 6.87109375 C-7.33652344 7.05800781 -8.30976563 7.24492187 -9.3125 7.4375 C-20.43852231 9.59262964 -20.43852231 9.59262964 -30 15 C-32.33297433 15.04092937 -34.66705225 15.04241723 -37 15 C-33.94527993 12.96351995 -31.14212849 11.79087778 -27.72265625 10.46875 C-26.81101967 10.11387512 -26.81101967 10.11387512 -25.88096619 9.75183105 C-23.9427787 8.99781598 -22.0027922 8.24858066 -20.0625 7.5 C-18.1260123 6.75084255 -16.18995334 6.00062653 -14.25474548 5.24816895 C-12.49635783 4.56475315 -10.73661577 3.88482521 -8.97680664 3.20507812 C-6.08254509 2.0830907 -6.08254509 2.0830907 -3.72436523 0.84179688 C-2 0 -2 0 0 0 Z " fill="#1E62C4" transform="translate(197,188)"/>
<path d="M0 0 C0.639375 0.70125 1.27875 1.4025 1.9375 2.125 C10.31691509 10.38738415 20.48249955 14.27664067 32 16 C32 16.33 32 16.66 32 17 C24.82455882 17.35613403 19.5878889 16.88942495 13 14 C11.67081711 13.65048358 10.33744936 13.31641446 9 13 C8.01 12.67 7.02 12.34 6 12 C6 11.01 6 10.02 6 9 C5.01 8.67 4.02 8.34 3 8 C2.34 7.01 1.68 6.02 1 5 C0.67 5 0.34 5 0 5 C0 3.35 0 1.7 0 0 Z " fill="#1A5EC9" transform="translate(101,178)"/>
<path d="M0 0 C0 0.66 0 1.32 0 2 C-0.78375 2.2475 -1.5675 2.495 -2.375 2.75 C-5.42295608 4.20140766 -5.72536664 4.99550707 -7 8 C-8.3125 9.6875 -8.3125 9.6875 -10 11 C-11.10408203 11.11021484 -11.10408203 11.11021484 -12.23046875 11.22265625 C-16.14066831 12.32015937 -18.30100779 14.87290171 -21 17.75 C-21.50789063 18.2759375 -22.01578125 18.801875 -22.5390625 19.34375 C-23.54420682 20.38497643 -24.54560384 21.42983511 -25.54296875 22.47851562 C-27.65966164 24.68884239 -29.82807259 26.84404264 -32 29 C-29.83296032 24.24513623 -26.51234105 20.81200507 -23 17 C-22.4121875 16.34644531 -21.824375 15.69289063 -21.21875 15.01953125 C-17.21730006 10.77222952 -12.89822206 7.32235679 -8.125 4 C-7.55313965 3.60176025 -6.9812793 3.20352051 -6.39208984 2.79321289 C-2.26363608 0 -2.26363608 0 0 0 Z " fill="#1B5CBE" transform="translate(100,57)"/>
<path d="M0 0 C0.33 0 0.66 0 1 0 C2.92306319 8.4930751 3.27496752 16.62559455 3.1875 25.3125 C3.18685547 26.54806641 3.18621094 27.78363281 3.18554688 29.05664062 C3.15908973 34.50387336 3.00848568 39.63364902 2 45 C1.67 45 1.34 45 1 45 C0.67 30.15 0.34 15.3 0 0 Z " fill="#1B5DC3" transform="translate(258,124)"/>
<path d="M0 0 C1.27953905 3.84292536 1.03266268 7.62150199 0.87890625 11.609375 C0.85529526 12.33618469 0.83168427 13.06299438 0.80735779 13.81182861 C0.73101128 16.12476558 0.64686319 18.43734293 0.5625 20.75 C0.50925021 22.3215972 0.45651002 23.89321176 0.40429688 25.46484375 C0.27543568 29.31012196 0.13957873 33.15509651 0 37 C-5.14772552 29.27841171 -3.77732194 16.12827019 -2.0625 7.375 C-1.49386595 4.83931336 -0.82344722 2.47034167 0 0 Z " fill="#1C65CF" transform="translate(111,129)"/>
<path d="M0 0 C3.1875 -0.3125 3.1875 -0.3125 6 0 C6.66 1.32 7.32 2.64 8 4 C5.69 3.67 3.38 3.34 1 3 C-0.99825961 5.99738941 -1.27550398 6.63347508 -1.25 10 C-1.25515625 10.680625 -1.2603125 11.36125 -1.265625 12.0625 C-1.09917603 14.32416007 -1.09917603 14.32416007 1 17 C3.58380177 17.25030977 3.58380177 17.25030977 6 17 C7.21693876 14.56612247 7.31959896 12.58161154 7.5625 9.875 C7.64628906 8.96492187 7.73007813 8.05484375 7.81640625 7.1171875 C7.87699219 6.41851562 7.93757812 5.71984375 8 5 C8.33 5 8.66 5 9 5 C9.08142927 6.7492214 9.13938541 8.49954542 9.1875 10.25 C9.22230469 11.22453125 9.25710937 12.1990625 9.29296875 13.203125 C8.95597709 16.42027204 8.2770356 17.73357995 6 20 C2.90137866 20.45188228 0.96039389 20.66957039 -1.6640625 18.83984375 C-3.5537186 16.23742263 -3.3988416 14.31182718 -3.375 11.125 C-3.38273437 10.09632813 -3.39046875 9.06765625 -3.3984375 8.0078125 C-2.94776826 4.60570155 -2.11222904 2.69321511 0 0 Z " fill="#175BC3" transform="translate(131,139)"/>
<path d="M0 0 C1.21171875 -0.01224609 2.4234375 -0.02449219 3.671875 -0.03710938 C11.08957404 -0.04909919 18.01081645 0.55024232 25.25 2.1875 C25.25 2.5175 25.25 2.8475 25.25 3.1875 C23.48849609 3.07921875 23.48849609 3.07921875 21.69140625 2.96875 C13.35678465 2.47924667 5.03793449 2.08430507 -3.3125 2.0625 C-4.03171631 2.05798828 -4.75093262 2.05347656 -5.49194336 2.04882812 C-9.24637232 2.00663561 -9.24637232 2.00663561 -12.75 3.1875 C-14.79055005 3.25815617 -16.83334257 3.27171976 -18.875 3.25 C-19.97070312 3.24097656 -21.06640625 3.23195312 -22.1953125 3.22265625 C-23.45988281 3.20525391 -23.45988281 3.20525391 -24.75 3.1875 C-17.51647373 -1.15261576 -8.10235303 0.00425544 0 0 Z " fill="#2367C7" transform="translate(153.75,41.8125)"/>
<path d="M0 0 C2.875 -0.125 2.875 -0.125 6 0 C8 2 8 2 8.1953125 4.8203125 C8.16050781 6.45613281 8.16050781 6.45613281 8.125 8.125 C8.10695312 9.22070312 8.08890625 10.31640625 8.0703125 11.4453125 C8.04710937 12.28835937 8.02390625 13.13140625 8 14 C9.20398438 13.55527344 10.40796875 13.11054688 11.6484375 12.65234375 C13.22381417 12.08033198 14.79934296 11.50873901 16.375 10.9375 C17.1690625 10.64294922 17.963125 10.34839844 18.78125 10.04492188 C19.54179687 9.77099609 20.30234375 9.49707031 21.0859375 9.21484375 C21.7876709 8.95823975 22.4894043 8.70163574 23.21240234 8.43725586 C25 8 25 8 27 9 C24.98488879 9.99088927 22.96259953 10.96718737 20.9375 11.9375 C19.81214844 12.48277344 18.68679687 13.02804688 17.52734375 13.58984375 C13.94319357 15.02270999 10.83979564 15.6979936 7 16 C6 15 6 15 5.90234375 12.05859375 C5.91394531 10.86363281 5.92554688 9.66867188 5.9375 8.4375 C5.94652344 7.23996094 5.95554688 6.04242188 5.96484375 4.80859375 C5.97644531 3.88175781 5.98804688 2.95492187 6 2 C3.03 1.505 3.03 1.505 0 1 C0 0.67 0 0.34 0 0 Z " fill="#1E61C4" transform="translate(133,195)"/>
<path d="M0 0 C3.11990898 2.78533429 3.53816182 4.84345641 4 9 C4.928125 9.28875 5.85625 9.5775 6.8125 9.875 C10 11 10 11 13 13 C15.31309119 20.58179892 16.35165064 29.07360442 16 37 C14.51171875 38.9453125 14.51171875 38.9453125 13 40 C13.03480469 38.87722656 13.06960937 37.75445312 13.10546875 36.59765625 C13.81815392 24.80365765 13.81815392 24.80365765 10 14 C8.27264777 12.88110044 6.52994202 12.0758568 4.65234375 11.23828125 C1.24381422 8.6838986 0.79935754 3.98917475 0 0 Z " fill="#1B5EC1" transform="translate(207,120)"/>
<path d="M0 0 C4.92856303 4.07881078 6.35530976 9.0695898 7.6875 15.125 C8.45465627 24.63773771 8.39334503 33.72578802 6 43 C5.10493183 40.03013448 4.96684831 37.74360212 5.33984375 34.671875 C5.43330078 33.87265625 5.52675781 33.0734375 5.62304688 32.25 C5.72681641 31.425 5.83058594 30.6 5.9375 29.75 C6.08735352 28.48929688 6.08735352 28.48929688 6.24023438 27.203125 C6.48704258 25.13463723 6.74266284 23.06720428 7 21 C6.01 20.67 5.02 20.34 4 20 C4.06960937 19.03900391 4.06960937 19.03900391 4.140625 18.05859375 C4.40922132 11.62187479 3.50091375 8.36077418 0 3 C0 2.01 0 1.02 0 0 Z " fill="#1B5DC1" transform="translate(192,123)"/>
<path d="M0 0 C2.79329599 3.35195519 4.3765745 6.86499817 6.0625 10.875 C6.56910156 12.06867188 7.07570312 13.26234375 7.59765625 14.4921875 C11.46991373 24.17822431 11.46991373 24.17822431 10 28 C9.54625 26.865625 9.0925 25.73125 8.625 24.5625 C7.42904194 20.95278308 7.42904194 20.95278308 5 20 C5 19.34 5 18.68 5 18 C4.01 17.67 3.02 17.34 2 17 C2.66 16.01 3.32 15.02 4 14 C3.67 13.34 3.34 12.68 3 12 C3.33 11.01 3.66 10.02 4 9 C3.34 9 2.68 9 2 9 C0.14223235 5.86501708 -0.20140476 3.62528568 0 0 Z " fill="#125FD7" transform="translate(247,96)"/>
<path d="M0 0 C1 3 1 3 0.22265625 4.82421875 C-0.8515625 6.54947917 -1.92578125 8.27473958 -3 10 C-5.475 9.505 -5.475 9.505 -8 9 C-8.12375 9.886875 -8.2475 10.77375 -8.375 11.6875 C-8.94412736 14.70387502 -9.76614436 17.20326054 -11 20 C-11.66 20 -12.32 20 -13 20 C-13.2475 20.5775 -13.495 21.155 -13.75 21.75 C-15.16683317 24.3002997 -16.87627537 26.01785701 -19 28 C-19.99 27.67 -20.98 27.34 -22 27 C-20.948125 26.21625 -19.89625 25.4325 -18.8125 24.625 C-13.76713004 20.3354142 -11.64489816 14.77040441 -9.05078125 8.82421875 C-7.41372977 5.98220001 -4.71573646 4.75391313 -2 3 C-1.34 2.01 -0.68 1.02 0 0 Z " fill="#1758BE" transform="translate(219,160)"/>
<path d="M0 0 C3.35426269 -0.17705785 6.67024141 -0.56451849 10 -1 C6.6752388 1.21650746 3.49460399 2.12605143 -0.3125 3.125 C-1.28993164 3.39763672 -1.28993164 3.39763672 -2.28710938 3.67578125 C-6.28383711 4.73997502 -9.87067786 5.19206149 -14 5 C-14 4.34 -14 3.68 -14 3 C-8.63022797 -0.61637708 -6.49489068 -1.21091182 0 0 Z " fill="#1663D8" transform="translate(182,250)"/>
<path d="M0 0 C2.5 1.4375 2.5 1.4375 5 4 C5.4451258 7.04256578 5.29359745 9.9465865 5 13 C3.80375 13.433125 2.6075 13.86625 1.375 14.3125 C-1.33358775 15.31266756 -3.69019261 16.37164218 -6.25 17.75 C-9.30052337 19.13660153 -9.95640855 18.96250328 -13 18 C-11.08850332 16.9901527 -9.17058431 15.99245505 -7.25 15 C-5.64898437 14.1646875 -5.64898437 14.1646875 -4.015625 13.3125 C-1 12 -1 12 3 12 C2.74438677 9.6568787 2.40729228 7.32156597 2 5 C1.34 4.67 0.68 4.34 0 4 C0 2.68 0 1.36 0 0 Z " fill="#125ACC" transform="translate(147,84)"/>
<path d="M0 0 C1.63001953 0.02707031 1.63001953 0.02707031 3.29296875 0.0546875 C4.54013672 0.08949219 4.54013672 0.08949219 5.8125 0.125 C5.8125 0.455 5.8125 0.785 5.8125 1.125 C4.77351563 1.34414062 3.73453125 1.56328125 2.6640625 1.7890625 C-7.80782886 4.1229922 -15.59072364 7.59996929 -24.1875 14.125 C-22.39582638 9.72725566 -19.57213793 6.21485405 -15.1875 4.2109375 C-13.81969299 3.71309598 -12.4421815 3.24078421 -11.0546875 2.80078125 C-3.13012247 -0.06731446 -3.13012247 -0.06731446 0 0 Z " fill="#1858BC" transform="translate(127.1875,102.875)"/>
<path d="M0 0 C0.99 0.495 0.99 0.495 2 1 C2.40729228 3.32156597 2.74438677 5.6568787 3 8 C4.27875 8.0825 5.5575 8.165 6.875 8.25 C9.0859375 8.51171875 9.0859375 8.51171875 11 9 C12.5 11.0625 12.5 11.0625 13 13 C15.31 13 17.62 13 20 13 C20 13.66 20 14.32 20 15 C15.16864744 15.33707111 13.03574846 14.53407461 9 12 C6.02858697 10.88572011 3.03026412 9.94978428 0 9 C0 6.03 0 3.06 0 0 Z " fill="#125ACA" transform="translate(156,88)"/>
<path d="M0 0 C1 3 1 3 -0.546875 6.6171875 C-1.27109606 8.04166642 -2.00594254 9.46078119 -2.75 10.875 C-3.1109375 11.58269531 -3.471875 12.29039062 -3.84375 13.01953125 C-5.76810206 16.76365101 -7.78149753 20.41950551 -10 24 C-11 21 -11 21 -10.0625 18.8125 C-9.5365625 17.9153125 -9.5365625 17.9153125 -9 17 C-8.34 17 -7.68 17 -7 17 C-6.83564453 16.14728516 -6.83564453 16.14728516 -6.66796875 15.27734375 C-5.62201699 10.18364373 -4.32991633 5.65983267 -2 1 C-1.34 0.67 -0.68 0.34 0 0 Z " fill="#1760C7" transform="translate(254,184)"/>
<path d="M0 0 C0.66 0 1.32 0 2 0 C2.36625971 4.51720311 2.36625971 4.51720311 0.625 6.8125 C-1 8 -1 8 -3 8 C-3 8.99 -3 9.98 -3 11 C-3.66 11 -4.32 11 -5 11 C-5.12375 11.5775 -5.2475 12.155 -5.375 12.75 C-6.00648824 15.02335767 -6.88858191 16.9253529 -8 19 C-8.66 19 -9.32 19 -10 19 C-8.62223181 14.27827359 -6.59101512 10.27437928 -4 6.125 C-3.64421875 5.53203125 -3.2884375 4.9390625 -2.921875 4.328125 C-2.00730003 2.84705957 -1.00976463 1.41787784 0 0 Z " fill="#1560C9" transform="translate(66,87)"/>
<path d="M0 0 C0.47050781 0.40992188 0.94101563 0.81984375 1.42578125 1.2421875 C2.04839844 1.78101563 2.67101562 2.31984375 3.3125 2.875 C4.23482422 3.67550781 4.23482422 3.67550781 5.17578125 4.4921875 C7.13498212 6.1640447 7.13498212 6.1640447 10 8 C10.94921875 10.3828125 10.94921875 10.3828125 11.6875 13.125 C12.06455078 14.49011719 12.06455078 14.49011719 12.44921875 15.8828125 C12.63097656 16.58148438 12.81273438 17.28015625 13 18 C9.51668565 14.98112756 8.20842856 12.43090471 7 8 C5.02 8.33 3.04 8.66 1 9 C0.29925156 5.846632 0 3.27275026 0 0 Z " fill="#1358C2" transform="translate(88,160)"/>
<path d="M0 0 C0.66 0.33 1.32 0.66 2 1 C1.67257813 1.97066406 1.34515625 2.94132813 1.0078125 3.94140625 C-0.23781217 8.3010926 -0.2253404 12.43375972 -0.125 16.9375 C-0.11146484 18.10635742 -0.11146484 18.10635742 -0.09765625 19.29882812 C-0.07433691 21.19935447 -0.03847586 23.09972008 0 25 C-2.89432885 20.65850672 -3.21101748 17.79908232 -3.25 12.6875 C-3.27578125 11.37136719 -3.3015625 10.05523437 -3.328125 8.69921875 C-2.99044348 4.89226164 -2.23489942 3.04063948 0 0 Z " fill="#155CC5" transform="translate(88,135)"/>
<path d="M0 0 C8.36284857 0.58345455 17.52280296 3.6102156 24 9 C19.91621717 8.25749403 15.98060777 7.17076699 12 6 C12 5.34 12 4.68 12 4 C11.38511719 3.96261719 10.77023438 3.92523438 10.13671875 3.88671875 C9.32847656 3.82097656 8.52023438 3.75523438 7.6875 3.6875 C6.88699219 3.62949219 6.08648437 3.57148437 5.26171875 3.51171875 C2.63727666 2.91793306 1.69179328 2.04219706 0 0 Z " fill="#2064C7" transform="translate(179,45)"/>
<path d="M0 0 C4.03112033 1.42188608 7.17779042 3.35844204 10.625 5.875 C11.56601563 6.55304687 12.50703125 7.23109375 13.4765625 7.9296875 C15.77171203 9.81270491 17.36001103 11.54551986 19 14 C15.41726669 12.34643078 12.19026533 10.32019297 9 8 C9 7.34 9 6.68 9 6 C8.2575 5.71125 7.515 5.4225 6.75 5.125 C4.43260203 4.17697356 2.22082885 3.15154089 0 2 C0 1.34 0 0.68 0 0 Z " fill="#1757BC" transform="translate(208,57)"/>
<path d="M0 0 C0 0.66 0 1.32 0 2 C-0.78375 2.2475 -1.5675 2.495 -2.375 2.75 C-5.42295608 4.20140766 -5.72536664 4.99550707 -7 8 C-8.625 9.75 -8.625 9.75 -10 11 C-10.99 10.67 -11.98 10.34 -13 10 C-10.80302491 5.19411698 -5.6499822 0 0 0 Z " fill="#136BEF" transform="translate(100,57)"/>
<path d="M0 0 C0.66 0 1.32 0 2 0 C-0.13785047 9.26401869 -0.13785047 9.26401869 -3.5625 12.1875 C-4.366875 12.455625 -5.17125 12.72375 -6 13 C-6.66 12.67 -7.32 12.34 -8 12 C-7.360625 11.773125 -6.72125 11.54625 -6.0625 11.3125 C-3.76165907 10.18295184 -3.76165907 10.18295184 -3.4375 7.6875 C-3.293125 6.800625 -3.14875 5.91375 -3 5 C-1.5625 2.1875 -1.5625 2.1875 0 0 Z " fill="#115AC8" transform="translate(99,120)"/>
<path d="M0 0 C0 0.66 0 1.32 0 2 C-0.66 2 -1.32 2 -2 2 C-2.185625 2.639375 -2.37125 3.27875 -2.5625 3.9375 C-4 6 -4 6 -7.625 6.75 C-8.73875 6.8325 -9.8525 6.915 -11 7 C-11 6.01 -11 5.02 -11 4 C-9.5437455 3.32880451 -8.08492133 2.66318193 -6.625 2 C-5.81289062 1.62875 -5.00078125 1.2575 -4.1640625 0.875 C-2 0 -2 0 0 0 Z " fill="#1160D6" transform="translate(197,188)"/>
<path d="M0 0 C0.66 0 1.32 0 2 0 C3.20250158 2.24307028 4.3869162 4.4928791 5.5625 6.75 C6.07586914 7.70132813 6.07586914 7.70132813 6.59960938 8.671875 C9.09168309 13.50498766 9.09168309 13.50498766 8.58959961 16.21582031 C8.39503174 16.80459961 8.20046387 17.39337891 8 18 C6.6589995 15.5664433 5.32705144 13.12864699 4 10.6875 C3.6184375 9.99720703 3.236875 9.30691406 2.84375 8.59570312 C0 3.33984375 0 3.33984375 0 0 Z " fill="#1C5EC5" transform="translate(55,189)"/>
<path d="M0 0 C3.59634744 3.49359465 6.83451967 7.11098131 10 11 C9.67 11.66 9.34 12.32 9 13 C8.01 12.67 7.02 12.34 6 12 C6 11.01 6 10.02 6 9 C5.01 8.67 4.02 8.34 3 8 C2.34 7.01 1.68 6.02 1 5 C0.67 5 0.34 5 0 5 C0 3.35 0 1.7 0 0 Z " fill="#0A5DD9" transform="translate(101,178)"/>
<path d="M0 0 C0.66 0 1.32 0 2 0 C0.51299286 4.82829428 -2.21283256 7.7487769 -5.625 11.3125 C-6.3984375 12.13717773 -6.3984375 12.13717773 -7.1875 12.97851562 C-8.45200618 14.32498054 -9.72514922 15.66332535 -11 17 C-11 13.10210113 -9.82235577 12.40702789 -7.1875 9.625 C-4.91350854 7.21432053 -3.04453547 5.07589098 -1.36328125 2.2109375 C-0.91339844 1.48132813 -0.46351563 0.75171875 0 0 Z " fill="#205FC3" transform="translate(241,208)"/>
<path d="M0 0 C1.32 0 2.64 0 4 0 C4.02698189 1.62490954 4.04638757 3.24994633 4.0625 4.875 C4.07410156 5.77992187 4.08570313 6.68484375 4.09765625 7.6171875 C4 10 4 10 3 12 C1.68 11.67 0.36 11.34 -1 11 C-0.34 10.01 0.32 9.02 1 8 C1.02749478 5.93089407 1.02749478 5.93089407 0.625 3.8125 C0.41875 2.554375 0.2125 1.29625 0 0 Z " fill="#105ECE" transform="translate(159,76)"/>
<path d="M0 0 C0.66 0.33 1.32 0.66 2 1 C0.75146327 1.79397239 -0.49890043 2.58507217 -1.75 3.375 C-2.44609375 3.81585938 -3.1421875 4.25671875 -3.859375 4.7109375 C-4.91898438 5.34902344 -4.91898438 5.34902344 -6 6 C-6.66515625 6.40476562 -7.3303125 6.80953125 -8.015625 7.2265625 C-10.42745892 8.166608 -11.60241182 7.85628149 -14 7 C-11.71296692 5.80274117 -9.42115138 4.61702982 -7.125 3.4375 C-6.14853516 2.92413086 -6.14853516 2.92413086 -5.15234375 2.40039062 C-3.46470143 1.53917109 -1.73420407 0.76313297 0 0 Z " fill="#195FC7" transform="translate(114,49)"/>
<path d="M0 0 C5.30721977 2.35876434 6.83639731 5.91130316 9 11 C5.36603447 9.99056513 4.06608233 9.08394242 1.6875 6.0625 C0 3 0 3 0 0 Z " fill="#1C63CC" transform="translate(111,166)"/>
<path d="M0 0 C5.24972347 4.10037573 9.20962911 8.52964787 13 14 C12.67 14.66 12.34 15.32 12 16 C11.5978125 15.0409375 11.5978125 15.0409375 11.1875 14.0625 C10.11332248 11.66868314 10.11332248 11.66868314 7 11 C5.97388051 9.34928604 4.97691857 7.68029994 4 6 C3.278125 5.278125 2.55625 4.55625 1.8125 3.8125 C1.214375 3.214375 0.61625 2.61625 0 2 C0 1.34 0 0.68 0 0 Z " fill="#1B5BBE" transform="translate(230,74)"/>
<path d="M0 0 C0.99 0.33 1.98 0.66 3 1 C1.21190303 2.17213045 -0.58059125 3.33755526 -2.375 4.5 C-3.37273437 5.1496875 -4.37046875 5.799375 -5.3984375 6.46875 C-8 8 -8 8 -10 8 C-10 6.68 -10 5.36 -10 4 C-9.36191406 3.79503906 -8.72382813 3.59007812 -8.06640625 3.37890625 C-7.24011719 3.10949219 -6.41382813 2.84007812 -5.5625 2.5625 C-4.73878906 2.29566406 -3.91507813 2.02882812 -3.06640625 1.75390625 C-1.03780412 1.17844506 -1.03780412 1.17844506 0 0 Z " fill="#175FCC" transform="translate(213,236)"/>
<path d="M0 0 C1.9375 0.3125 1.9375 0.3125 4 1 C5.29721449 4.89164348 5.13033993 7.89429226 5 12 C4.67 12.66 4.34 13.32 4 14 C3.34 14 2.68 14 2 14 C2.02320313 13.32453125 2.04640625 12.6490625 2.0703125 11.953125 C2.09738281 10.61507812 2.09738281 10.61507812 2.125 9.25 C2.15980469 7.92742187 2.15980469 7.92742187 2.1953125 6.578125 C1.99139502 3.8864142 1.36551721 2.30095026 0 0 Z " fill="#195EC6" transform="translate(176,141)"/>
<path d="M0 0 C1.60332791 -0.08121924 3.20784026 -0.13929134 4.8125 -0.1875 C6.15248047 -0.23970703 6.15248047 -0.23970703 7.51953125 -0.29296875 C10.41647515 0.04918998 11.22555028 0.75393573 13 3 C8.48382401 3.07654536 4.40914783 3.10228696 0 2 C0 1.34 0 0.68 0 0 Z " fill="#105FDB" transform="translate(176,102)"/>
<path d="M0 0 C0.33 0 0.66 0 1 0 C0.5547115 5.27315333 -0.08373163 10.01770224 -2 15 C-2.66 15 -3.32 15 -4 15 C-3.43179252 9.54520815 -2.05362055 5.08940744 0 0 Z " fill="#1A5EC8" transform="translate(55,106)"/>
<path d="M0 0 C-5.21849796 3.47899864 -10.77855342 5.22231918 -17 6 C-11.31032436 1.12313516 -7.52676821 -0.29516738 0 0 Z " fill="#205FC1" transform="translate(151,97)"/>
<path d="M0 0 C1.3410477 0.75733274 2.67269781 1.53132736 4 2.3125 C5.11375 2.95638672 5.11375 2.95638672 6.25 3.61328125 C6.8275 4.07089844 7.405 4.52851562 8 5 C8 5.99 8 6.98 8 8 C7.01 8 6.02 8 5 8 C4.67 7.01 4.34 6.02 4 5 C1.03 4.505 1.03 4.505 -2 4 C-1.34 2.68 -0.68 1.36 0 0 Z " fill="#0561E6" transform="translate(222,68)"/>
<path d="M0 0 C1 3 1 3 0.22265625 4.82421875 C-0.8515625 6.54947917 -1.92578125 8.27473958 -3 10 C-4.32 9.34 -5.64 8.68 -7 8 C-6.21625 7.236875 -5.4325 6.47375 -4.625 5.6875 C-1.92742283 3.09108195 -1.92742283 3.09108195 0 0 Z " fill="#135ED5" transform="translate(219,160)"/>
<path d="M0 0 C2.5 2.3125 2.5 2.3125 5 5 C5 5.99 5 6.98 5 8 C3.68 8.33 2.36 8.66 1 9 C0.29925156 5.846632 0 3.27275026 0 0 Z " fill="#1864D8" transform="translate(88,160)"/>
<path d="M0 0 C0.66 0 1.32 0 2 0 C2.36625971 4.51720311 2.36625971 4.51720311 0.625 6.8125 C-1 8 -1 8 -3 8 C-2.45276317 4.62537285 -1.9451 2.91765 0 0 Z " fill="#105DD6" transform="translate(66,87)"/>
<path d="M0 0 C0.99 0.495 0.99 0.495 2 1 C2.40729228 3.32156597 2.74438677 5.6568787 3 8 C5.475 8.99 5.475 8.99 8 10 C6.25 10.625 6.25 10.625 4 11 C2.68 10.34 1.36 9.68 0 9 C0 6.03 0 3.06 0 0 Z " fill="#2668C3" transform="translate(156,88)"/>
<path d="M0 0 C0.46019531 0.93005859 0.46019531 0.93005859 0.9296875 1.87890625 C1.62259684 3.2520806 2.3526687 4.60737388 3.125 5.9375 C4.17440531 8.41109822 4.14780359 10.33953538 4 13 C1.8206856 11.24135754 1.06313581 10.30604 0.48828125 7.51953125 C0.43027344 6.62621094 0.37226562 5.73289063 0.3125 4.8125 C0.24675781 3.91144531 0.18101563 3.01039063 0.11328125 2.08203125 C0.07589844 1.39496094 0.03851563 0.70789063 0 0 Z " fill="#055DE5" transform="translate(110,156)"/>
<path d="M0 0 C2.52394612 3.12488567 4.39701907 6.31314387 6 10 C5.67 10.66 5.34 11.32 5 12 C4.67 11.01 4.34 10.02 4 9 C3.34 9 2.68 9 2 9 C0.14223235 5.86501708 -0.20140476 3.62528568 0 0 Z " fill="#165CC8" transform="translate(247,96)"/>
<path d="M0 0 C1.09570312 0.00902344 2.19140625 0.01804687 3.3203125 0.02734375 C4.16335937 0.03894531 5.00640625 0.05054687 5.875 0.0625 C5.875 0.3925 5.875 0.7225 5.875 1.0625 C4.10743706 1.45262425 2.33575217 1.8241098 0.5625 2.1875 C-0.42363281 2.39632812 -1.40976563 2.60515625 -2.42578125 2.8203125 C-5.125 3.0625 -5.125 3.0625 -8.125 1.0625 C-5.36047967 -0.31976016 -3.0788637 -0.03275387 0 0 Z " fill="#276CCD" transform="translate(127.125,102.9375)"/>
<path d="M0 0 C2.97 0 5.94 0 9 0 C9.33 0.99 9.66 1.98 10 3 C3.375 2.25 3.375 2.25 0 0 Z " fill="#2068D0" transform="translate(119,250)"/>
<path d="M0 0 C3.99500618 1.3697164 6.80009492 3.25722422 10 6 C6.33118845 5.29445932 3.29549466 3.72264494 0 2 C0 1.34 0 0.68 0 0 Z " fill="#1661C6" transform="translate(208,57)"/>
<path d="M0 0 C0 0.66 0 1.32 0 2 C-5.2734375 5.22265625 -5.2734375 5.22265625 -7 6 C-7.66 5.67 -8.32 5.34 -9 5 C-7.87926138 4.16094435 -6.75325453 3.32892169 -5.625 2.5 C-4.99851562 2.0359375 -4.37203125 1.571875 -3.7265625 1.09375 C-2 0 -2 0 0 0 Z " fill="#1A5DC2" transform="translate(100,57)"/>
</svg>
